PathFileType	4	(X/Y/Z)	../Python\running\Running15\task.trc
DataRate	CameraRate	NumFrames	NumMarkers	Units	OrigDataRate	OrigDataStartFrame	OrigNumFrames
200.000000	200.000000	4	30	mm	200.000000	26	215
Frame#	Time	C7			RBAK			CLAV			STRN			RASI			LASI			RTH1			RTH2			RTH3			RTB2			RHEE			RD5M			RTOE			LTH3			LTB2			LTB3			LHEE			LTOE			LD5M			RTB3			RTB1			T10			PE01			LPSI			PE03			PE02			LTH2			RPSI			LTH1			LTB1			
		X1	Y1	Z1	X2	Y2	Z2	X3	Y3	Z3	X4	Y4	Z4	X5	Y5	Z5	X6	Y6	Z6	X7	Y7	Z7	X8	Y8	Z8	X9	Y9	Z9	X10	Y10	Z10	X11	Y11	Z11	X12	Y12	Z12	X13	Y13	Z13	X14	Y14	Z14	X15	Y15	Z15	X16	Y16	Z16	X17	Y17	Z17	X18	Y18	Z18	X19	Y19	Z19	X20	Y20	Z20	X21	Y21	Z21	X22	Y22	Z22	X23	Y23	Z23	X24	Y24	Z24	X25	Y25	Z25	X26	Y26	Z26	X27	Y27	Z27	X28	Y28	Z28	X29	Y29	Z29	X30	Y30	Z30	

27	0.13	-1493.740478515625	1390.806640625	162.756576538086	-1500.57861328125	1319.914428710938	290.6361389160157	-1389.280883789063	1291.74072265625	129.6732788085938	-1353.70947265625	1106.95849609375	149.6916656494141	-1446.335327148438	889.7727661132817	330.1141967773439	-1399.101440429688	905.2424926757817	116.2238998413087	-1638.720581054688	638.0401000976565	325.250213623047	-1651.332519531251	561.1268310546877	306.4605102539064	-1606.537841796876	599.8011474609377	323.2705688476564	-1842.414794921876	379.6657714843751	259.364715576172	-2003.190917968751	274.8465881347657	142.8269195556641	-1989.581298828126	134.8076171875001	221.7021636962892	-1955.735351562501	110.395980834961	179.9421691894532	-1313.3740234375	669.4761352539065	65.32584381103518	-1210.052124023438	286.1239013671876	91.41435241699222	-1187.61279296875	330.9736938476564	89.6913757324219	-1169.181884765625	136.298324584961	151.9493103027344	-979.923461914063	136.6072998046876	151.8596343994141	-1014.58154296875	110.7129058837891	108.3324584960938	-1841.244262695313	329.4121704101564	246.8030853271486	-1781.751831054688	377.0405578613282	268.0246887207032	-1570.137451171876	1109.933471679688	210.1881866455079	-1583.292846679688	1010.151428222657	204.961151123047	-1596.039428710938	977.8971557617192	157.8062133789063	-1609.378173828126	964.085815429688	163.875717163086	-1625.753540039063	959.7852172851567	211.4440917968751	-1357.920288085938	606.0435180664065	70.89072418212893	-1604.965087890626	984.4273071289067	242.1295318603517	-1360.411865234375	666.0715332031252	56.72370529174808	-1243.363525390625	357.7564392089845	80.81305694580081	
28	0.135	-1478.70166015625	1390.724975585938	161.774154663086	-1485.928100585938	1320.277221679688	289.864227294922	-1374.394897460938	1292.090087890625	129.1292572021485	-1338.775512695313	1107.629028320313	149.7760620117188	-1430.251831054688	890.8129882812505	329.857147216797	-1383.572021484375	905.0830078125005	115.6496734619141	-1619.787841796876	636.491638183594	326.0991210937501	-1631.641845703126	559.4561157226565	307.3942260742189	-1587.129760742188	598.610290527344	323.6372680664064	-1824.241333007813	380.7010192871095	258.8978881835939	-1987.341918945313	278.2042236328126	140.8358154296876	-1973.435913085938	138.6322021484376	220.4381866455079	-1939.382446289063	114.0482864379883	178.9628143310547	-1300.232299804688	665.9019165039065	63.80511856079104	-1198.570922851563	283.8651733398439	92.10603332519534	-1175.942260742188	328.5964660644532	90.19041442871097	-1158.4677734375	134.2900848388672	153.1290893554688	-969.1886596679692	132.9257507324219	152.1451721191407	-1004.400390625	106.855209350586	109.1710281372071	-1823.895751953126	330.5181274414064	245.9657745361329	-1763.693725585938	377.0379333496095	267.9190979003907	-1555.203735351563	1110.08154296875	209.2696533203126	-1567.999023437501	1009.903747558594	204.1724853515626	-1580.701660156251	977.2057495117192	157.3198242187501	-1594.060791015626	963.1638183593755	163.8444213867188	-1610.185668945313	959.404907226563	211.5464477539064	-1345.703979492188	603.3717041015627	71.01467132568362	-1589.582397460938	984.2856445312505	241.6610717773439	-1347.4599609375	663.207214355469	55.95413589477542	-1231.525390625	355.6434020996095	81.43524169921878	
29	0.14	-1463.658569335938	1390.429809570313	160.7928924560547	-1471.246704101563	1320.5302734375	289.0737609863282	-1359.49169921875	1292.215209960938	128.6512756347657	-1323.876342773438	1107.94189453125	149.8829956054688	-1414.18212890625	891.5901489257817	329.5528259277345	-1368.09765625	904.6509399414067	114.9824447631837	-1600.667602539063	634.601013183594	326.9536437988282	-1611.708618164063	557.439880371094	308.3912353515626	-1567.510864257813	597.108093261719	324.0553588867189	-1805.804321289063	381.5402221679689	258.549041748047	-1971.087036132813	281.1531982421876	138.984115600586	-1956.742797851563	142.168685913086	219.5027618408204	-1922.413696289063	117.401596069336	178.3991699218751	-1287.027465820313	662.337585449219	62.34607315063479	-1187.627075195313	281.3736267089845	92.78215026855472	-1164.676635742188	325.8994140625001	90.74024200439456	-1148.822143554688	131.8662719726563	154.2208862304688	-959.5668334960942	128.370834350586	152.769271850586	-995.3046875000005	102.218849182129	110.2105407714844	-1806.284057617188	331.4373474121095	245.3381652832032	-1745.380615234376	376.8195190429689	267.9289550781251	-1540.276000976563	1110.001831054688	208.382537841797	-1552.761108398438	1009.311584472657	203.3514862060548	-1565.423828125001	976.1836547851567	156.7935028076172	-1578.831054687501	961.9091796875005	163.798568725586	-1594.670654296876	958.6937866210942	211.6461791992189	-1333.394897460938	600.7620239257815	71.289176940918	-1574.283447265626	983.8240356445317	241.1600646972657	-1334.458129882813	660.3641357421877	55.2400932312012	-1219.982299804688	353.3973083496095	82.01863861083987	
30	0.145	-1448.612182617188	1389.912109375	159.8128356933594	-1456.541625976563	1320.655639648438	288.2640075683595	-1344.5673828125	1292.104248046875	128.2357482910157	-1309.00146484375	1107.895141601563	150.0103149414063	-1398.130249023438	892.086059570313	329.203826904297	-1352.677734375	903.954223632813	114.2333068847657	-1581.389404296876	632.3811035156252	327.8036499023439	-1591.554199218751	555.0903320312502	309.4501037597657	-1547.709594726563	595.3115234375002	324.5361938476564	-1787.106567382813	382.1786499023439	258.3204650878907	-1954.427856445313	283.6918029785157	137.2470397949219	-1939.526123046876	145.4455718994141	218.9192504882814	-1904.855346679688	120.4694061279297	178.2906799316407	-1273.710327148438	658.8750000000002	60.99900054931643	-1177.2060546875	278.6440429687501	93.45014190673831	-1153.80615234375	322.8782043457032	91.33601379394534	-1140.19384765625	129.0496215820313	155.2520141601563	-951.0276489257817	122.9782333374024	153.7052764892579	-987.2645874023442	96.83557128906256	111.4558563232422	-1788.414672851563	332.1648864746095	244.9215545654298	-1726.816772460938	376.3791503906251	268.0604858398439	-1525.349609375	1109.686767578125	207.540252685547	-1537.576660156251	1008.380310058594	202.5148315429689	-1550.202270507813	974.8403320312505	156.2391662597657	-1563.681030273438	960.3366088867192	163.740707397461	-1579.201904296876	957.6537475585942	211.7438964843751	-1320.9306640625	598.2556762695315	71.68694305419925	-1559.060058593751	983.0395507812505	240.6387634277345	-1321.369140625	657.5991821289065	54.60553741455081	-1208.728393554688	351.0021972656251	82.56172943115237	
